<svg width="20" height="18" viewBox="0 0 20 18" fill="none" xmlns="http://www.w3.org/2000/svg">
<path fill-rule="evenodd" clip-rule="evenodd" d="M16.9591 16.8101V16.808L16.9772 16.7636L20 1.152V1.10244C20 0.713181 19.8589 0.373483 19.5545 0.170078C19.2874 -0.00854762 18.98 -0.0209377 18.7643 -0.00441746C18.5635 0.0141844 18.3654 0.0557435 18.1736 0.119484C18.0919 0.14649 18.0112 0.176801 17.9317 0.210346L17.9186 0.215508L1.06613 6.98778L1.06109 6.98985C1.00985 7.00777 0.959702 7.0288 0.910907 7.05283C0.791053 7.10799 0.67606 7.17363 0.567204 7.24901C0.3505 7.40182 -0.0617412 7.76114 0.00780567 8.33109C0.0652574 8.80398 0.382754 9.10341 0.597442 9.25932C0.724163 9.35029 0.860405 9.42648 1.00364 9.48647L1.03589 9.50093L1.04597 9.50402L1.05302 9.50712L4.00221 10.5241C3.99213 10.7131 4.01028 10.9062 4.05966 11.0972L5.53627 16.837C5.61694 17.1498 5.79125 17.429 6.03472 17.6351C6.27818 17.8413 6.57858 17.9642 6.89372 17.9865C7.20886 18.0089 7.52292 17.9295 7.79177 17.7596C8.06063 17.5897 8.27079 17.3378 8.39273 17.0393L10.6989 14.5138L14.659 17.6237L14.7154 17.6485C15.0753 17.8096 15.4109 17.8602 15.7183 17.8178C16.0258 17.7745 16.2697 17.6423 16.4531 17.4926C16.6653 17.3164 16.8344 17.0919 16.947 16.837L16.9551 16.8194L16.9581 16.8132L16.9591 16.8101ZM5.52116 10.7028C5.5048 10.6391 5.50869 10.5717 5.53225 10.5105C5.55581 10.4492 5.59782 10.3972 5.65219 10.362L15.6518 3.85719C15.6518 3.85719 16.2404 3.49065 16.2193 3.85719C16.2193 3.85719 16.3241 3.92121 16.0086 4.22167C15.7103 4.50768 8.88158 11.2614 8.19014 11.9449C8.1517 11.9831 8.12476 12.0319 8.11253 12.0853L6.99777 16.4425L5.52116 10.7028Z" fill="black"/>
</svg>
