<svg width="54" height="112" viewBox="0 0 54 112" fill="none" xmlns="http://www.w3.org/2000/svg">
<path d="M1.65994 104.309C0.93675 103.905 0.678061 102.992 1.08214 102.268L7.66706 90.4832C8.07115 89.76 8.98499 89.5014 9.70818 89.9054C10.4314 90.3095 10.6901 91.2234 10.286 91.9465L4.43272 102.422L14.9084 108.275C15.6316 108.68 15.8903 109.593 15.4862 110.317C15.0821 111.04 14.1682 111.298 13.4451 110.894L1.65994 104.309ZM45.8088 31.5409L44.53 32.3248L45.8088 31.5409ZM1.98304 101.557C22.2415 95.822 36.9998 85.1057 44.6125 72.5763C52.191 60.1031 52.7578 45.7469 44.53 32.3248L47.0876 30.7569C55.9295 45.1806 55.3118 60.7441 47.1764 74.134C39.0751 87.4677 23.59 98.5581 2.80017 104.443L1.98304 101.557ZM44.53 32.3248C36.2275 18.781 20.4896 8.68246 1.59927 3.44548L2.40073 0.554519C21.7588 5.92118 38.2652 16.3649 47.0876 30.7569L44.53 32.3248Z" fill="#78B8FC"/>
</svg>
