<svg width="60" height="60" viewBox="0 0 60 60" fill="none" xmlns="http://www.w3.org/2000/svg">
<rect width="60" height="60" rx="15" fill="#78B8FC"/>
<path d="M29.0483 21.9516C29.3462 21.0274 30.6538 21.0274 30.9517 21.9516L32.6093 27.0921C32.7425 27.5052 33.127 27.7852 33.5611 27.7852H38.9412C39.9081 27.7852 40.3121 29.0209 39.5319 29.5921L35.1662 32.7882C34.8184 33.0429 34.6729 33.4917 34.8052 33.902L36.4696 39.0639C36.7672 39.9865 35.7094 40.7503 34.9272 40.1776L30.5907 37.0029C30.239 36.7454 29.761 36.7454 29.4093 37.0029L25.0728 40.1776C24.2906 40.7503 23.2328 39.9865 23.5304 39.0639L25.1948 33.902C25.3271 33.4917 25.1816 33.0429 24.8338 32.7882L20.4681 29.5921C19.6879 29.0209 20.0919 27.7852 21.0588 27.7852H26.4389C26.873 27.7852 27.2575 27.5052 27.3907 27.0921L29.0483 21.9516Z" fill="white"/>
</svg>
