<svg width="24" height="32" viewBox="0 0 24 32" fill="none" xmlns="http://www.w3.org/2000/svg">
<path d="M4.00604 3.2H22.0006V4.75H4.00604V3.2Z" fill="#2E3343"/>
<path d="M23.0003 6H3.86609C3.61097 5.99638 3.35922 5.94112 3.12603 5.83753C2.89284 5.73395 2.68305 5.5842 2.50929 5.3973C2.33553 5.21041 2.20141 4.99025 2.11503 4.7501C2.02864 4.50995 1.99177 4.25479 2.00665 4C2.00541 3.49296 2.19674 3.00436 2.54194 2.63307C2.88714 2.26177 3.36044 2.03549 3.86609 2H23.0003C23.2654 2 23.5197 1.89464 23.7072 1.70711C23.8947 1.51957 24 1.26522 24 1C24 0.734784 23.8947 0.48043 23.7072 0.292893C23.5197 0.105357 23.2654 0 23.0003 0H3.86609C2.82999 0.0362965 1.84848 0.473694 1.12856 1.21994C0.408653 1.96619 0.00661837 2.96295 0.00725356 4C-0.00241785 4.16319 -0.00241785 4.32681 0.00725356 4.49C-0.00237834 4.56971 -0.00237834 4.65029 0.00725356 4.73V28C0.00661837 29.037 0.408653 30.0338 1.12856 30.7801C1.84848 31.5263 2.82999 31.9637 3.86609 32H23.0003C23.2654 32 23.5197 31.8946 23.7072 31.7071C23.8947 31.5196 24 31.2652 24 31V7.07C24.0006 6.79794 23.8975 6.53587 23.7118 6.33711C23.5261 6.13834 23.2717 6.0178 23.0003 6ZM22.0006 30H3.86609C3.36044 29.9645 2.88714 29.7382 2.54194 29.3669C2.19674 28.9956 2.00541 28.507 2.00665 28V7.55C2.57507 7.86367 3.21719 8.01907 3.86609 8H22.0006V30Z" fill="#2E3343"/>
</svg>
