<svg width="60" height="60" viewBox="0 0 60 60" fill="none" xmlns="http://www.w3.org/2000/svg">
<rect width="60" height="60" rx="15" fill="#B9E1BE"/>
<path d="M39.3333 18H20.6667C19.2 18 18 19.2 18 20.6667V39.3333C18 40.8 19.2 42 20.6667 42H39.3333C40.8 42 42 40.8 42 39.3333V20.6667C42 19.2 40.8 18 39.3333 18ZM39.3333 39.3333H20.6667V20.6667H39.3333V39.3333Z" fill="white"/>
<path d="M22.3333 24.2933H29V26.2933H22.3333V24.2933ZM31.3333 35H38V37H31.3333V35ZM31.3333 31.6667H38V33.6667H31.3333V31.6667ZM24.6667 38H26.6667V35.3333H29.3333V33.3333H26.6667V30.6667H24.6667V33.3333H22V35.3333H24.6667V38ZM32.7867 28.6L34.6667 26.72L36.5467 28.6L37.96 27.1867L36.08 25.2933L37.96 23.4133L36.5467 22L34.6667 23.88L32.7867 22L31.3733 23.4133L33.2533 25.2933L31.3733 27.1867L32.7867 28.6Z" fill="white"/>
</svg>
