<svg width="60" height="60" viewBox="0 0 60 60" fill="none" xmlns="http://www.w3.org/2000/svg">
<rect width="60" height="60" rx="15" fill="#B9E1BE"/>
<path d="M31.9535 27.7674C31.9535 28.2296 32.3286 28.6047 32.7907 28.6047H33.5609L31.3139 30.8517C31.2879 30.8777 31.2571 30.8983 31.2232 30.9124C31.1893 30.9265 31.153 30.9337 31.1163 30.9337C31.0796 30.9337 31.0432 30.9265 31.0093 30.9124C30.9754 30.8983 30.9446 30.8777 30.9187 30.8517L29.1483 29.0813C28.782 28.7153 28.2853 28.5096 27.7674 28.5096C27.2496 28.5096 26.7529 28.7153 26.3866 29.0813L23.827 31.6409C23.7447 31.7176 23.6787 31.81 23.633 31.9127C23.5872 32.0154 23.5626 32.1263 23.5606 32.2387C23.5587 32.3511 23.5793 32.4627 23.6214 32.567C23.6636 32.6712 23.7262 32.7659 23.8057 32.8454C23.8852 32.9249 23.9799 32.9876 24.0842 33.0297C24.1884 33.0718 24.3001 33.0925 24.4125 33.0905C24.5249 33.0885 24.6358 33.0639 24.7385 33.0182C24.8412 32.9724 24.9336 32.9064 25.0102 32.8242L27.5699 30.2646C27.5958 30.2386 27.6266 30.218 27.6605 30.2039C27.6944 30.1898 27.7307 30.1826 27.7674 30.1826C27.8041 30.1826 27.8405 30.1898 27.8744 30.2039C27.9083 30.218 27.9391 30.2386 27.965 30.2646L29.7354 32.035C30.1018 32.401 30.5984 32.6067 31.1163 32.6067C31.6341 32.6067 32.1308 32.401 32.4971 32.035L34.7442 29.789V30.5581C34.7442 30.7802 34.8324 30.9931 34.9894 31.1501C35.1464 31.3071 35.3594 31.3953 35.5814 31.3953C35.8034 31.3953 36.0164 31.3071 36.1734 31.1501C36.3304 30.9931 36.4186 30.7802 36.4186 30.5581V27.7674C36.4186 27.5454 36.3304 27.3325 36.1734 27.1754C36.0164 27.0184 35.8034 26.9302 35.5814 26.9302H32.7907C32.5687 26.9302 32.3557 27.0184 32.1987 27.1754C32.0417 27.3325 31.9535 27.5454 31.9535 27.7674Z" fill="white"/>
<path fill-rule="evenodd" clip-rule="evenodd" d="M29.9364 18C27.3589 18 25.3395 18 23.7633 18.2121C22.1514 18.4287 20.8789 18.8819 19.8798 19.8798C18.8807 20.8789 18.4287 22.1514 18.2121 23.7645C18 25.3395 18 27.3589 18 29.9364V30.0636C18 32.6411 18 34.6605 18.2121 36.2367C18.4287 37.8486 18.8819 39.1211 19.8798 40.1202C20.8789 41.1193 22.1514 41.5714 23.7645 41.7879C25.3395 42 27.3589 42 29.9364 42H30.0636C32.6411 42 34.6605 42 36.2367 41.7879C37.8486 41.5714 39.1211 41.1181 40.1202 40.1202C41.1193 39.1211 41.5714 37.8486 41.7879 36.2355C42 34.6605 42 32.6411 42 30.0636V29.9364C42 27.3589 42 25.3395 41.7879 23.7633C41.5714 22.1514 41.1181 20.8789 40.1202 19.8798C39.1211 18.8807 37.8486 18.4287 36.2355 18.2121C34.6605 18 32.6411 18 30.0636 18H29.9364ZM21.0642 21.0642C21.7005 20.4279 22.56 20.0629 23.9877 19.8709C25.4389 19.6767 27.3455 19.6744 30 19.6744C32.6545 19.6744 34.5611 19.6767 36.0123 19.8709C37.44 20.0629 38.3007 20.429 38.9369 21.0642C39.5721 21.7005 39.9371 22.56 40.1291 23.9877C40.3233 25.4389 40.3256 27.3455 40.3256 30C40.3256 32.6545 40.3233 34.5611 40.1291 36.0123C39.9371 37.44 39.571 38.3007 38.9358 38.9369C38.2995 39.5721 37.44 39.9371 36.0123 40.1291C34.5611 40.3233 32.6545 40.3256 30 40.3256C27.3455 40.3256 25.4389 40.3233 23.9877 40.1291C22.56 39.9371 21.6993 39.571 21.0631 38.9358C20.4279 38.2995 20.0629 37.44 19.8709 36.0123C19.6767 34.5611 19.6744 32.6545 19.6744 30C19.6744 27.3455 19.6767 25.4389 19.8709 23.9877C20.0629 22.56 20.429 21.7005 21.0642 21.0642Z" fill="white"/>
</svg>
