<svg width="60" height="60" viewBox="0 0 60 60" fill="none" xmlns="http://www.w3.org/2000/svg">
<rect width="60" height="60" rx="15" fill="#D6C5EB"/>
<path d="M23.606 36.6727C23.8465 36.4383 24.1693 36.3023 24.5087 36.2922C24.8481 36.282 25.1788 36.3986 25.4335 36.6181C25.6882 36.8376 25.8478 37.1437 25.8801 37.4742C25.9123 37.8046 25.8146 38.1347 25.6069 38.3973L25.4959 38.5201L22.4245 41.5225C22.1333 41.8067 21.745 41.9759 21.3341 41.9976C20.9232 42.0193 20.5185 41.892 20.1977 41.6401L20.0614 41.5225L18.408 39.905C18.1683 39.6699 18.0292 39.3544 18.0188 39.0226C18.0084 38.6908 18.1276 38.3676 18.3522 38.1186C18.5768 37.8696 18.8899 37.7136 19.228 37.6821C19.5661 37.6506 19.9037 37.7461 20.1723 37.9491L20.298 38.0576L21.2429 38.9813L23.606 36.6713V36.6727ZM40.6634 37.9622C41.0179 37.9622 41.3579 38.0999 41.6085 38.3449C41.8592 38.5899 42 38.9222 42 39.2687C42 39.6153 41.8592 39.9476 41.6085 40.1926C41.3579 40.4376 41.0179 40.5753 40.6634 40.5753H28.6342C28.2797 40.5753 27.9398 40.4376 27.6891 40.1926C27.4384 39.9476 27.2976 39.6153 27.2976 39.2687C27.2976 38.9222 27.4384 38.5899 27.6891 38.3449C27.9398 38.0999 28.2797 37.9622 28.6342 37.9622H40.6634ZM25.4959 27.5256C25.6202 27.6469 25.7188 27.791 25.786 27.9496C25.8533 28.1082 25.8879 28.2783 25.8879 28.45C25.8879 28.6216 25.8533 28.7917 25.786 28.9503C25.7188 29.1089 25.6202 29.253 25.4959 29.3743L22.4245 32.3768C22.2693 32.5285 22.0851 32.6488 21.8824 32.7309C21.6797 32.813 21.4624 32.8553 21.2429 32.8553C21.0235 32.8553 20.8062 32.813 20.6035 32.7309C20.4007 32.6488 20.2165 32.5285 20.0614 32.3768L18.408 30.7593C18.2804 30.6387 18.1786 30.4946 18.1085 30.3352C18.0385 30.1758 18.0016 30.0043 18.0001 29.8308C17.9985 29.6574 18.0323 29.4853 18.0995 29.3247C18.1667 29.1642 18.266 29.0183 18.3915 28.8956C18.517 28.7729 18.6662 28.6759 18.8305 28.6102C18.9947 28.5445 19.1707 28.5115 19.3482 28.513C19.5257 28.5145 19.701 28.5505 19.8641 28.619C20.0272 28.6875 20.1747 28.787 20.298 28.9118L21.2429 29.8355L23.606 27.5269C23.8566 27.2819 24.1965 27.1443 24.551 27.1443C24.9054 27.1443 25.2453 27.2806 25.4959 27.5256ZM40.6634 28.8164C41.0041 28.8168 41.3318 28.9443 41.5795 29.1729C41.8272 29.4015 41.9763 29.714 41.9962 30.0464C42.0162 30.3788 41.9055 30.7062 41.6869 30.9616C41.4682 31.2169 41.1581 31.381 40.8198 31.4204L40.6634 31.4295H28.6342C28.2937 31.4288 27.9662 31.3011 27.7188 31.0724C27.4713 30.8437 27.3225 30.5312 27.3027 30.1989C27.2829 29.8666 27.3936 29.5394 27.6123 29.2841C27.8309 29.0289 28.141 28.8649 28.4792 28.8256L28.6342 28.8164H40.6634ZM23.606 18.3811C23.8465 18.1468 24.1693 18.0107 24.5087 18.0006C24.8481 17.9905 25.1788 18.107 25.4335 18.3266C25.6882 18.5461 25.8478 18.8522 25.8801 19.1826C25.9123 19.5131 25.8146 19.8431 25.6069 20.1057L25.4959 20.2286L22.4245 23.231C22.1333 23.5152 21.745 23.6844 21.3341 23.7061C20.9232 23.7278 20.5185 23.6005 20.1977 23.3486L20.0614 23.231L18.408 21.6135C18.1683 21.3784 18.0292 21.0629 18.0188 20.7311C18.0084 20.3993 18.1276 20.0761 18.3522 19.8271C18.5768 19.5781 18.8899 19.422 19.228 19.3905C19.5661 19.3591 19.9037 19.4545 20.1723 19.6576L20.298 19.766L21.2429 20.6898L23.606 18.3811ZM40.6634 19.6707C41.0041 19.671 41.3318 19.7985 41.5795 20.0272C41.8272 20.2558 41.9763 20.5682 41.9962 20.9006C42.0162 21.2331 41.9055 21.5604 41.6869 21.8158C41.4682 22.0711 41.1581 22.2353 40.8198 22.2746L40.6634 22.2837H28.6342C28.2937 22.283 27.9662 22.1553 27.7188 21.9266C27.4713 21.6979 27.3225 21.3855 27.3027 21.0531C27.2829 20.7208 27.3936 20.3936 27.6123 20.1384C27.8309 19.8831 28.141 19.7191 28.4792 19.6798L28.6342 19.6707H40.6634Z" fill="white"/>
</svg>
