<svg width="60" height="60" viewBox="0 0 60 60" fill="none" xmlns="http://www.w3.org/2000/svg">
<rect width="60" height="60" rx="15" fill="#D6C5EB"/>
<path d="M21.8299 19C20.9115 19.252 20.074 19.7472 19.4017 20.4359C18.7294 21.1246 18.246 21.9824 18 22.9232M38.1701 19C39.0885 19.252 39.926 19.7472 40.5983 20.4359C41.2706 21.1246 41.754 21.9824 42 22.9232M30 25.7453V30.9458C30 31.1372 30.1516 31.2925 30.3384 31.2925H34.0614M39.4765 31.2925C39.4765 36.6538 35.2337 41 30 41C24.7663 41 20.5235 36.6538 20.5235 31.2925C20.5235 25.9312 24.7663 21.585 30 21.585C35.2337 21.585 39.4765 25.9312 39.4765 31.2925Z" stroke="white" stroke-width="2" stroke-linecap="round"/>
</svg>
