<svg width="20" height="20" viewBox="0 0 20 20" fill="none" xmlns="http://www.w3.org/2000/svg">
<path d="M0.397739 19.6023C-0.13258 19.0719 -0.13258 18.2121 0.397739 17.6818L17.6818 0.397739C18.2121 -0.13258 19.0719 -0.13258 19.6023 0.397739C20.1326 0.928057 20.1326 1.78787 19.6023 2.31819L2.31819 19.6023C1.78787 20.1326 0.928057 20.1326 0.397739 19.6023Z" fill="#78B8FC"/>
<path d="M0.397797 0.39774C0.928115 -0.132578 1.78793 -0.132578 2.31825 0.39774L19.6023 17.6818C20.1326 18.2121 20.1326 19.0719 19.6023 19.6023C19.072 20.1326 18.2122 20.1326 17.6819 19.6023L0.397798 2.31819C-0.132521 1.78787 -0.132521 0.928058 0.397797 0.39774Z" fill="#78B8FC"/>
</svg>
