<svg width="60" height="60" viewBox="0 0 60 60" fill="none" xmlns="http://www.w3.org/2000/svg">
<rect width="60" height="60" rx="15" fill="#D6C5EB"/>
<path d="M27.0454 19C25.5361 18.9995 24.0511 19.388 22.7277 20.1293C21.4044 20.8707 20.2855 21.9411 19.4747 23.2413C18.6639 24.5416 18.1873 26.0298 18.089 27.5682C17.9907 29.1065 18.274 30.6454 18.9125 32.0422L18.0463 35.5151C17.9827 35.7702 17.9846 36.0378 18.052 36.2919C18.1195 36.546 18.25 36.778 18.431 36.9653C18.6121 37.1527 18.8375 37.2891 19.0853 37.3613C19.3332 37.4335 19.5951 37.4391 19.8457 37.3774C20.743 37.1574 22.1224 36.819 23.351 36.5196C24.571 37.0815 25.8986 37.3575 27.2365 37.3275C28.5744 37.2975 29.8889 36.9622 31.0835 36.3462C32.2781 35.7301 33.3227 34.8489 34.1408 33.7671C34.9588 32.6853 35.5296 31.4303 35.8113 30.094C36.093 28.7577 36.0785 27.374 35.7688 26.0442C35.4591 24.7144 34.8622 23.4721 34.0216 22.4085C33.1811 21.3448 32.1182 20.4867 30.9109 19.8969C29.7037 19.3072 28.3825 19.0007 27.0442 19M19.866 28.1649C19.8665 26.5706 20.3757 25.0198 21.3166 23.7477C22.2574 22.4755 23.5786 21.5513 25.08 21.115C26.5813 20.6788 28.1809 20.7542 29.6365 21.33C31.0921 21.9057 32.3242 22.9504 33.1463 24.3057C33.9683 25.661 34.3355 27.2531 34.1921 28.8407C34.0487 30.4282 33.4026 31.9248 32.3516 33.1036C31.3007 34.2824 29.9022 35.0792 28.3681 35.3732C26.8339 35.6673 25.2478 35.4425 23.8499 34.733L23.558 34.5852L23.2422 34.6622C22.1379 34.931 20.8614 35.2426 19.9067 35.4772L20.7322 32.1681L20.8159 31.8308L20.6604 31.5217C20.1364 30.4838 19.864 29.3326 19.866 28.1649ZM33.0261 40.9957C30.7627 40.999 28.5824 40.1257 26.9246 38.5517H27.0442C27.9032 38.5517 28.7371 38.443 29.5327 38.2377C30.5675 38.8267 31.7579 39.1627 33.0261 39.1627C34.1746 39.1627 35.2585 38.8878 36.2204 38.399L36.5111 38.2511L36.8269 38.3281C37.93 38.5969 39.179 38.8719 40.105 39.0735C39.8956 38.1558 39.6097 36.9277 39.3369 35.834L39.2532 35.4968L39.4087 35.1876C39.9331 34.1498 40.2059 32.9987 40.2043 31.8308C40.2049 30.605 39.9044 29.3986 39.3302 28.3222C38.756 27.2458 37.9266 26.3337 36.9179 25.6696C36.7069 24.7967 36.3852 23.9558 35.9608 23.1682C37.1484 23.5882 38.2365 24.2584 39.1546 25.1352C40.0726 26.012 40.8001 27.076 41.29 28.2582C41.7799 29.4405 42.0213 30.7146 41.9985 31.9981C41.9758 33.2817 41.6893 34.5461 41.1578 35.7094C41.4605 36.9412 41.7668 38.2756 41.9606 39.1346C42.0174 39.3835 42.0119 39.643 41.9445 39.8891C41.8771 40.1352 41.7501 40.36 41.5752 40.5427C41.4002 40.7254 41.183 40.8602 40.9436 40.9344C40.7042 41.0087 40.4504 41.0201 40.2055 40.9676C39.041 40.7203 37.8792 40.4595 36.7205 40.1855C35.5595 40.7212 34.3 40.9974 33.0261 40.9957Z" fill="white"/>
</svg>
