<svg width="60" height="60" viewBox="0 0 60 60" fill="none" xmlns="http://www.w3.org/2000/svg">
<rect width="60" height="60" rx="15" fill="#D6C5EB"/>
<path d="M30 21C31.1603 21 32.2731 21.4578 33.0936 22.2726C33.9141 23.0874 34.375 24.1925 34.375 25.3448C34.375 26.4971 33.9141 27.6023 33.0936 28.4171C32.2731 29.2319 31.1603 29.6897 30 29.6897C28.8397 29.6897 27.7269 29.2319 26.9064 28.4171C26.0859 27.6023 25.625 26.4971 25.625 25.3448C25.625 24.1925 26.0859 23.0874 26.9064 22.2726C27.7269 21.4578 28.8397 21 30 21ZM21.25 24.1034C21.95 24.1034 22.6 24.2897 23.1625 24.6248C22.975 26.4 23.5 28.1628 24.575 29.5407C23.95 30.7324 22.7 31.5517 21.25 31.5517C20.2554 31.5517 19.3016 31.1594 18.5983 30.4609C17.8951 29.7625 17.5 28.8153 17.5 27.8276C17.5 26.8399 17.8951 25.8926 18.5983 25.1942C19.3016 24.4958 20.2554 24.1034 21.25 24.1034ZM38.75 24.1034C39.7446 24.1034 40.6984 24.4958 41.4017 25.1942C42.1049 25.8926 42.5 26.8399 42.5 27.8276C42.5 28.8153 42.1049 29.7625 41.4017 30.4609C40.6984 31.1594 39.7446 31.5517 38.75 31.5517C37.3 31.5517 36.05 30.7324 35.425 29.5407C36.5148 28.1434 37.0207 26.3829 36.8375 24.6248C37.4 24.2897 38.05 24.1034 38.75 24.1034ZM21.875 36.8276C21.875 34.2579 25.5125 32.1724 30 32.1724C34.4875 32.1724 38.125 34.2579 38.125 36.8276V39H21.875V36.8276ZM15 39V37.1379C15 35.4124 17.3625 33.96 20.5625 33.5379C19.825 34.3821 19.375 35.549 19.375 36.8276V39H15ZM45 39H40.625V36.8276C40.625 35.549 40.175 34.3821 39.4375 33.5379C42.6375 33.96 45 35.4124 45 37.1379V39Z" fill="white"/>
</svg>
