<svg width="250" height="236" viewBox="0 0 250 236" fill="none" xmlns="http://www.w3.org/2000/svg">
<g clip-path="url(#clip0_2012_1343)">
<path d="M216.649 70.065L216.579 70.0839L180.875 98.1025L132.024 136.438C131.833 136.586 131.614 136.696 131.38 136.76C131.147 136.823 130.903 136.841 130.663 136.81L67.4251 128.449L21.5251 122.379L21.4545 122.367L21.3842 122.386C20.7326 122.562 20.1772 122.988 19.8398 123.573C19.5024 124.157 19.4106 124.851 19.5845 125.503L48.1918 232.267C48.3671 232.919 48.7938 233.474 49.3782 233.811C49.9625 234.149 50.6569 234.241 51.3089 234.067L246.574 181.746C247.226 181.57 247.781 181.143 248.118 180.559C248.456 179.975 248.548 179.28 248.374 178.628L219.766 71.8647C219.591 71.2131 219.164 70.6577 218.58 70.3203C217.996 69.9829 217.301 69.8911 216.649 70.065Z" fill="white"/>
<path d="M217.012 70.7207C216.941 70.7399 216.865 70.7367 216.795 70.7115L101.544 29.0947C101.193 28.969 100.813 28.9537 100.453 29.0506C100.094 29.1476 99.7728 29.3523 99.533 29.6372L21.2296 123.112C21.1676 123.186 21.0789 123.232 20.983 123.24C20.8872 123.248 20.792 123.218 20.7182 123.156C20.6444 123.095 20.5982 123.006 20.5896 122.91C20.5809 122.815 20.6106 122.719 20.6721 122.645L98.9756 29.1702C99.3113 28.7713 99.761 28.4848 100.264 28.3491C100.768 28.2133 101.3 28.2349 101.791 28.4108L217.042 70.0274C217.115 70.0537 217.177 70.1025 217.22 70.1669C217.264 70.2312 217.285 70.3076 217.282 70.3849C217.278 70.4623 217.25 70.5365 217.202 70.5969C217.154 70.6573 217.087 70.7007 217.012 70.7207Z" fill="#B9E1BE"/>
<path d="M27.3982 124.097L101.142 31.2444L213.432 79.4499L139.431 155.175L88.7514 157.086L27.3982 124.097Z" fill="#F4FDF5"/>
<path d="M104.333 199.108L58.8745 211.289C58.3114 211.441 57.7111 211.363 57.2057 211.072C56.7003 210.781 56.3311 210.301 56.1793 209.738C56.0275 209.175 56.1056 208.575 56.3965 208.07C56.6873 207.564 57.167 207.195 57.7301 207.043L103.195 194.861C103.758 194.709 104.359 194.787 104.864 195.078C105.37 195.369 105.739 195.848 105.891 196.411C106.042 196.975 105.964 197.575 105.673 198.08C105.383 198.586 104.903 198.955 104.34 199.107L104.333 199.108Z" fill="#B9E1BE"/>
<path d="M72.7374 197.786L56.4277 202.157C55.8648 202.308 55.2649 202.23 54.7597 201.939C54.2546 201.648 53.8857 201.168 53.734 200.605C53.5823 200.043 53.6603 199.443 53.9508 198.937C54.2413 198.432 54.7206 198.063 55.2833 197.911L71.5992 193.539C71.8781 193.463 72.1691 193.444 72.4555 193.481C72.742 193.518 73.0183 193.611 73.2688 193.755C73.5192 193.899 73.7388 194.091 73.9151 194.32C74.0913 194.549 74.2207 194.81 74.2959 195.089C74.3711 195.368 74.3905 195.659 74.3532 195.946C74.3159 196.232 74.2224 196.508 74.0783 196.759C73.9341 197.009 73.7421 197.228 73.5131 197.404C73.2841 197.581 73.0226 197.71 72.7437 197.785L72.7374 197.786Z" fill="#B9E1BE"/>
<path d="M130.888 137.08C130.543 137.173 130.182 137.198 129.827 137.153L66.7678 128.812L47.0181 55.1049C46.8442 54.4529 46.936 53.7586 47.2734 53.1742C47.6108 52.5898 48.1662 52.1632 48.8177 51.9878L157.689 22.8159C158.341 22.642 159.035 22.7338 159.619 23.0712C160.204 23.4086 160.63 23.964 160.806 24.6155L180.569 98.374L180.475 98.4482L131.87 136.593C131.578 136.82 131.245 136.985 130.888 137.08Z" fill="white"/>
<path d="M130.935 137.255C130.567 137.355 130.183 137.381 129.804 137.333L66.6237 128.976L46.8425 55.1515C46.6562 54.453 46.7545 53.7091 47.116 53.083C47.4775 52.4569 48.0726 51.9997 48.7707 51.8118L157.642 22.6399C158.34 22.4536 159.084 22.552 159.71 22.9135C160.336 23.2749 160.793 23.87 160.981 24.5681L180.776 98.4425L131.982 136.736C131.671 136.977 131.315 137.154 130.935 137.255ZM67.2003 128.318L129.898 136.612C130.481 136.685 131.07 136.523 131.535 136.163L179.949 98.167L160.279 24.7563C160.141 24.2444 159.806 23.808 159.347 23.543C158.888 23.2779 158.342 23.2057 157.83 23.3424L48.9589 52.5142C48.447 52.6521 48.0106 52.9873 47.7455 53.4464C47.4804 53.9055 47.4083 54.4511 47.5449 54.9633L67.2003 128.318Z" fill="#B9E1BE"/>
<path d="M216.122 70.2096L216.052 70.2284L180.347 98.247L131.496 136.583C131.305 136.731 131.087 136.84 130.853 136.904C130.62 136.968 130.376 136.985 130.136 136.955L66.8978 128.593L20.9978 122.523L20.9271 122.512L20.8568 122.531C20.2052 122.706 19.6498 123.133 19.3124 123.717C18.975 124.302 18.8832 124.996 19.0572 125.648L47.6644 232.412C47.8398 233.063 48.2665 233.619 48.8508 233.956C49.4352 234.293 50.1295 234.385 50.7815 234.211L246.047 181.89C246.698 181.715 247.254 181.288 247.591 180.704C247.928 180.119 248.02 179.425 247.846 178.773L219.239 72.0092C219.064 71.3577 218.637 70.8022 218.053 70.4648C217.468 70.1275 216.774 70.0357 216.122 70.2096ZM247.144 178.961C247.269 179.427 247.203 179.923 246.962 180.34C246.721 180.758 246.324 181.063 245.859 181.188L50.5933 233.509C50.1276 233.633 49.6314 233.568 49.2139 233.327C48.7965 233.086 48.4918 232.689 48.3668 232.223L19.7596 125.46C19.6385 125.005 19.6977 124.522 19.9249 124.11C20.152 123.699 20.5294 123.391 20.9783 123.251L67.101 129.352L130.039 137.677C130.719 137.762 131.405 137.574 131.947 137.154L180.552 99.0092L216.381 70.8931C216.839 70.7913 217.319 70.8701 217.72 71.113C218.122 71.356 218.414 71.7444 218.537 72.1974L247.144 178.961Z" fill="#B9E1BE"/>
<path d="M102.666 67.0883L64.0339 77.4396C63.2892 77.6381 62.4961 77.5328 61.829 77.147C61.1618 76.7611 60.675 76.1263 60.4755 75.3818C60.276 74.6374 60.3802 73.8442 60.7651 73.1764C61.1499 72.5087 61.7841 72.021 62.5283 71.8205L101.16 61.4692C101.905 61.2708 102.698 61.376 103.365 61.7619C104.032 62.1477 104.519 62.7826 104.718 63.527C104.918 64.2715 104.814 65.0647 104.429 65.7324C104.044 66.4001 103.41 66.8878 102.666 67.0883Z" fill="#B9E1BE"/>
<path d="M79.4481 60.5136L60.8347 65.5011C60.0896 65.7007 59.2957 65.5962 58.6276 65.2105C57.9595 64.8248 57.472 64.1895 57.2724 63.4443C57.0727 62.6992 57.1772 61.9052 57.5629 61.2372C57.9486 60.5691 58.5839 60.0816 59.3291 59.8819L77.9425 54.8945C78.6876 54.6948 79.4816 54.7993 80.1497 55.1851C80.8178 55.5708 81.3053 56.2061 81.5049 56.9512C81.7046 57.6964 81.6001 58.4903 81.2143 59.1584C80.8286 59.8265 80.1933 60.314 79.4481 60.5136Z" fill="#B9E1BE"/>
<path d="M147.058 85.3062L88.0573 101.115C87.3126 101.314 86.5195 101.209 85.8524 100.823C85.1852 100.437 84.6984 99.8021 84.4989 99.0576C84.2994 98.3132 84.4036 97.52 84.7885 96.8522C85.1734 96.1845 85.8075 95.6968 86.5517 95.4963L145.553 79.687C146.297 79.4886 147.09 79.5939 147.758 79.9797C148.425 80.3655 148.912 81.0004 149.111 81.7448C149.311 82.4893 149.206 83.2825 148.822 83.9502C148.437 84.618 147.803 85.1056 147.058 85.3062Z" fill="#B9E1BE"/>
<path d="M150.539 98.3012L91.5379 114.11C90.7927 114.31 89.9988 114.206 89.3307 113.82C88.6626 113.434 88.1751 112.799 87.9755 112.054C87.7758 111.309 87.8803 110.515 88.2661 109.847C88.6518 109.178 89.2871 108.691 90.0322 108.491L149.033 92.682C149.778 92.4824 150.572 92.5869 151.24 92.9726C151.908 93.3583 152.396 93.9937 152.596 94.7388C152.795 95.4839 152.691 96.2779 152.305 96.946C151.919 97.614 151.284 98.1015 150.539 98.3012Z" fill="#B9E1BE"/>
</g>
<defs>
<clipPath id="clip0_2012_1343">
<rect width="208.435" height="186.832" fill="white" transform="translate(0 54.9355) rotate(-15)"/>
</clipPath>
</defs>
</svg>
