<svg width="60" height="60" viewBox="0 0 60 60" fill="none" xmlns="http://www.w3.org/2000/svg">
<rect width="60" height="60" rx="15" fill="#D6C5EB"/>
<path d="M29.536 30.0625L33.172 29.7375L34.6 26.25L36.028 29.7375L39.664 30.0625L36.904 32.55L37.732 36.25L34.6 34.3375L31.468 36.25L32.296 32.55L29.536 30.0625ZM43 25V37.5C43 38.8875 41.932 40 40.6 40H21.4C20.7635 40 20.153 39.7366 19.7029 39.2678C19.2529 38.7989 19 38.163 19 37.5V22.5C19 21.837 19.2529 21.2011 19.7029 20.7322C20.153 20.2634 20.7635 20 21.4 20H28.6L31 22.5H40.6C41.2365 22.5 41.847 22.7634 42.2971 23.2322C42.7471 23.7011 43 24.337 43 25ZM40.6 25H21.4V37.5H40.6V25Z" fill="white"/>
</svg>
