<svg width="60" height="60" viewBox="0 0 60 60" fill="none" xmlns="http://www.w3.org/2000/svg">
<rect width="60" height="60" rx="15" fill="#D6C5EB"/>
<path fill-rule="evenodd" clip-rule="evenodd" d="M38.9878 20.1717C39.2543 20.0118 39.5724 19.961 39.8755 20.0302C40.1786 20.0993 40.4431 20.2829 40.6134 20.5424L41.8038 22.354C41.959 22.5906 42.0254 22.8744 41.9913 23.1551C41.9572 23.4359 41.8248 23.6956 41.6174 23.8884L41.6138 23.8932L41.5284 23.9724L41.2579 24.2304C39.7609 25.6791 38.3094 27.1739 36.9053 28.7125C34.2637 31.6111 31.1267 35.4046 29.0154 39.0854C28.4262 40.1124 26.987 40.3331 26.1333 39.4465L18.3359 31.3627C18.2242 31.2469 18.1369 31.1097 18.0793 30.9595C18.0218 30.8093 17.995 30.6491 18.0008 30.4884C18.0065 30.3277 18.0445 30.1697 18.1126 30.024C18.1807 29.8782 18.2775 29.7476 18.3972 29.6399L20.7539 27.5188C20.961 27.3325 21.2265 27.2238 21.5051 27.2113C21.7836 27.1989 22.0579 27.2834 22.2809 27.4504L26.2595 30.427C32.4746 24.3119 35.9987 21.9653 38.9878 20.1717ZM39.2403 22.8303C36.4869 24.5483 33.0505 27.0401 27.219 32.8576C27.0144 33.0618 26.7428 33.1855 26.4541 33.206C26.1655 33.2265 25.8791 33.1424 25.6475 32.9692L21.6292 29.9627L20.9306 30.5913L27.3236 37.221C29.5432 33.5378 32.5984 29.8715 35.127 27.0977C36.4586 25.6382 37.8318 24.2171 39.2451 22.8363L39.2403 22.8303Z" fill="white"/>
</svg>
