<svg width="60" height="61" viewBox="0 0 60 61" fill="none" xmlns="http://www.w3.org/2000/svg">
<rect y="0.895508" width="60" height="60" rx="15" fill="#B9E1BE"/>
<path d="M24 35.8955C24.34 35.8955 24.6252 35.7755 24.8556 35.5355C25.086 35.2955 25.2008 34.9988 25.2 34.6455C25.2 34.2913 25.0848 33.9947 24.8544 33.7555C24.624 33.5163 24.3392 33.3963 24 33.3955C23.66 33.3955 23.3752 33.5155 23.1456 33.7555C22.916 33.9955 22.8008 34.2922 22.8 34.6455C22.8 34.9997 22.9152 35.2968 23.1456 35.5368C23.376 35.7768 23.6608 35.8963 24 35.8955ZM24 32.1455C24.34 32.1455 24.6252 32.0255 24.8556 31.7855C25.086 31.5455 25.2008 31.2488 25.2 30.8955V27.1455C25.2 26.7913 25.0848 26.4947 24.8544 26.2555C24.624 26.0163 24.3392 25.8963 24 25.8955C23.66 25.8955 23.3752 26.0155 23.1456 26.2555C22.916 26.4955 22.8008 26.7922 22.8 27.1455V30.8955C22.8 31.2497 22.9152 31.5468 23.1456 31.7868C23.376 32.0268 23.6608 32.1463 24 32.1455ZM28.8 34.6455H36C36.34 34.6455 36.6252 34.5255 36.8556 34.2855C37.086 34.0455 37.2008 33.7488 37.2 33.3955C37.2 33.0413 37.0848 32.7447 36.8544 32.5055C36.624 32.2663 36.3392 32.1463 36 32.1455H28.8C28.46 32.1455 28.1752 32.2655 27.9456 32.5055C27.716 32.7455 27.6008 33.0422 27.6 33.3955C27.6 33.7497 27.7152 34.0468 27.9456 34.2868C28.176 34.5268 28.4608 34.6463 28.8 34.6455ZM28.8 29.6455H36C36.34 29.6455 36.6252 29.5255 36.8556 29.2855C37.086 29.0455 37.2008 28.7488 37.2 28.3955C37.2 28.0413 37.0848 27.7447 36.8544 27.5055C36.624 27.2663 36.3392 27.1463 36 27.1455H28.8C28.46 27.1455 28.1752 27.2655 27.9456 27.5055C27.716 27.7455 27.6008 28.0422 27.6 28.3955C27.6 28.7497 27.7152 29.0468 27.9456 29.2868C28.176 29.5268 28.4608 29.6463 28.8 29.6455ZM20.4 40.8955C19.74 40.8955 19.1752 40.6509 18.7056 40.1618C18.236 39.6726 18.0008 39.0838 18 38.3955V23.3955C18 22.708 18.2352 22.1197 18.7056 21.6305C19.176 21.1413 19.7408 20.8963 20.4 20.8955H39.6C40.26 20.8955 40.8252 21.1405 41.2956 21.6305C41.766 22.1205 42.0008 22.7088 42 23.3955V38.3955C42 39.083 41.7652 39.6718 41.2956 40.1618C40.826 40.6518 40.2608 40.8963 39.6 40.8955H20.4ZM20.4 38.3955H39.6V23.3955H20.4V38.3955Z" fill="white"/>
</svg>
