<svg width="60" height="60" viewBox="0 0 60 60" fill="none" xmlns="http://www.w3.org/2000/svg">
<rect width="60" height="60" rx="15" fill="#78B8FC"/>
<path d="M30.3954 25.1241C30.3954 24.8259 30.519 24.5398 30.739 24.3289C30.959 24.118 31.2574 23.9995 31.5686 23.9995H37.8253C38.0572 23.9997 38.2838 24.0657 38.4765 24.1893C38.6692 24.3129 38.8195 24.4885 38.9082 24.6939C38.9969 24.8993 39.0201 25.1252 38.9749 25.3433C38.9297 25.5613 38.8182 25.7616 38.6543 25.9189L35.698 28.756C36.186 28.87 36.6428 29.0259 37.0542 29.2344C38.2148 29.8207 39 30.8284 39 32.241C39 33.2202 38.6387 34.0524 38.0161 34.6807C37.4123 35.2925 36.6177 35.6599 35.8138 35.8459C34.2339 36.2103 32.3334 35.9403 30.9272 35.0556C30.6868 34.8843 30.5237 34.6314 30.4713 34.3486C30.4189 34.0658 30.4812 33.7745 30.6455 33.5343C30.8097 33.2941 31.0635 33.1232 31.3548 33.0564C31.6462 32.9896 31.9532 33.0321 32.213 33.1752C33.0483 33.7 34.2777 33.886 35.2647 33.658C35.7434 33.5486 36.0937 33.3566 36.3127 33.1347C36.5145 32.9308 36.6537 32.6548 36.6537 32.241C36.6537 31.7791 36.4613 31.4777 35.9592 31.2243C35.3758 30.9289 34.4263 30.7474 33.1343 30.7474C32.9024 30.7472 32.6758 30.6812 32.4831 30.5576C32.2903 30.434 32.1401 30.2584 32.0514 30.053C31.9627 29.8476 31.9395 29.6217 31.9847 29.4036C32.0299 29.1856 32.1414 28.9853 32.3053 28.828L34.9957 26.2488H31.5686C31.2574 26.2488 30.959 26.1303 30.739 25.9194C30.519 25.7085 30.3954 25.4224 30.3954 25.1241ZM24.7847 33.766C24.2372 33.691 23.5803 33.9355 23.2471 34.6237C23.1843 34.7608 23.0935 34.8844 22.9802 34.9873C22.8669 35.0903 22.7333 35.1705 22.5873 35.2234C22.4412 35.2762 22.2856 35.3006 22.1296 35.295C21.9736 35.2895 21.8203 35.2541 21.6787 35.191C21.5372 35.128 21.4102 35.0384 21.3051 34.9277C21.2001 34.817 21.1192 34.6873 21.0671 34.5462C21.0151 34.4051 20.9929 34.2554 21.002 34.106C21.011 33.9566 21.0511 33.8104 21.1198 33.676C21.9144 32.0355 23.6053 31.3292 25.121 31.5392C26.6852 31.7566 28.0491 32.9563 28.0491 34.8712C28.0491 37.02 26.3473 38.1582 25.2492 38.8914C24.7675 39.2153 24.3561 39.4868 24.0417 39.7507H27.267C27.5782 39.7507 27.8766 39.8692 28.0966 40.0801C28.3166 40.291 28.4402 40.5771 28.4402 40.8753C28.4402 41.1736 28.3166 41.4597 28.0966 41.6706C27.8766 41.8815 27.5782 42 27.267 42H22.1834C21.8723 42 21.5739 41.8815 21.3539 41.6706C21.1339 41.4597 21.0103 41.1736 21.0103 40.8753C21.0103 39.8407 21.4796 39.0594 22.0583 38.4611C22.6026 37.9032 23.3097 37.4474 23.8571 37.0815C25.1085 36.2418 25.7029 35.7259 25.7029 34.8712C25.7029 34.1619 25.2852 33.8365 24.7847 33.766ZM25.0834 18.1348C25.2706 18.2308 25.427 18.3737 25.5361 18.5483C25.6452 18.7228 25.7028 18.9225 25.7029 19.126V26.2788H26.815C27.1261 26.2788 27.4245 26.3973 27.6445 26.6082C27.8645 26.8191 27.9881 27.1052 27.9881 27.4034C27.9881 27.7017 27.8645 27.9878 27.6445 28.1987C27.4245 28.4096 27.1261 28.5281 26.815 28.5281H22.1975C21.8864 28.5281 21.588 28.4096 21.368 28.1987C21.148 27.9878 21.0244 27.7017 21.0244 27.4034C21.0244 27.1052 21.148 26.8191 21.368 26.6082C21.588 26.3973 21.8864 26.2788 22.1975 26.2788H23.3566V21.2253L22.8341 21.5597C22.5752 21.7213 22.2603 21.7784 21.9578 21.7187C21.6552 21.6591 21.3894 21.4874 21.2181 21.241C21.0467 20.9946 20.9836 20.6933 21.0426 20.4026C21.1015 20.1119 21.2776 19.8553 21.5327 19.6883L23.879 18.1887C24.0557 18.0759 24.2611 18.0111 24.4732 18.0013C24.6853 17.9915 24.8962 18.0371 25.0834 18.1333V18.1348Z" fill="white"/>
</svg>
