<svg width="60" height="60" viewBox="0 0 60 60" fill="none" xmlns="http://www.w3.org/2000/svg">
<rect width="60" height="60" rx="15" fill="#D6C5EB"/>
<path d="M19.969 18L19.656 18.3302C19.656 18.3302 18.898 18.96 18.406 18.96V20.88C19.086 20.88 19.555 20.6141 20 20.3702V24.72H22V18H19.969ZM25 20.88V22.8H42V20.88H25ZM20.5 26.64C20.1716 26.6396 19.8463 26.7014 19.5428 26.8219C19.2393 26.9424 18.9636 27.1192 18.7314 27.3421C18.4991 27.565 18.315 27.8298 18.1895 28.1211C18.064 28.4125 17.9996 28.7247 18 29.04V29.52H20V29.04C20 28.8336 20.285 28.56 20.5 28.56C20.715 28.56 21 28.8336 21 29.04L20.906 29.1302L18.313 31.5302L18 31.8V33.36H23V31.44H21.281L22.156 30.6L22.281 30.5098L22.25 30.48C22.75 30.0864 23 29.5008 23 29.04C23 27.7123 21.883 26.64 20.5 26.64ZM25 29.52V31.44H42V29.52H25ZM18 35.28V37.2H19.375L19.125 37.5898L19 37.8V39.12H20.5C20.715 39.12 21 39.3936 21 39.6C21 39.8064 20.715 40.08 20.5 40.08H18V42H20.5C21.883 42 23 40.9277 23 39.6C23 38.6362 22.32 37.9728 21.469 37.5898L21.875 36.9302L22 36.6902V35.28H18ZM25 38.16V40.08H42V38.16H25Z" fill="white"/>
</svg>
