<svg width="60" height="60" viewBox="0 0 60 60" fill="none" xmlns="http://www.w3.org/2000/svg">
<rect width="60" height="60" rx="15" fill="#B9E1BE"/>
<path fill-rule="evenodd" clip-rule="evenodd" d="M26.0571 20.8821C22.634 26.973 22.4154 27.492 23.2748 27.492C23.5587 27.492 25.1563 25.0709 26.8248 22.1114L29.8591 16.7308L30.8523 18.3597C31.8009 19.916 32.8129 20.5163 32.8079 19.5196C32.8041 18.7249 30.3447 14.9857 29.8358 15C29.5714 15.0075 27.8708 17.6544 26.0571 20.8821ZM19.9603 18.6924C19.498 19.4371 20.3473 23.7403 20.9567 23.7403C21.2569 23.7403 21.5026 22.903 21.5026 21.8801C21.5026 20.1411 21.6081 20.0592 23.1139 20.6295C25.0809 21.3736 25.2719 21.3805 25.2719 20.7089C25.2719 19.9792 20.3272 18.1021 19.9603 18.6924ZM33.2904 20.5626C29.9263 21.7894 27.0447 23.1288 26.8864 23.5396C26.7243 23.9598 29.2265 23.3395 32.605 22.122L38.6113 19.9579L38.3286 21.8769C37.9687 24.3181 38.9255 24.9984 39.4469 22.6717C39.6617 21.7119 39.9639 20.4575 40.1191 19.8848C40.2736 19.312 40.1769 18.7286 39.9036 18.5879C39.6303 18.4479 36.6545 19.3364 33.2904 20.5626ZM34.8119 25.069C35.8089 26.838 36.3316 27.3194 36.4748 26.6016C36.716 25.3917 34.9784 22.4897 34.0122 22.4897C33.6522 22.4897 34.0122 23.6502 34.8119 25.069ZM31.554 23.3607C31.554 23.4958 31.9925 23.7741 32.529 23.9791C33.0881 24.1924 33.34 24.0873 33.1201 23.7334C32.7514 23.1388 31.554 22.8543 31.554 23.3607ZM18.6756 25.8444C16.6025 26.5816 14.9491 27.4645 15.0012 27.8071C15.1752 28.952 21.5026 33.9687 21.5026 32.962C21.5026 32.4424 20.5131 31.2662 19.3038 30.3483C18.0945 29.4304 17.1051 28.4568 17.1051 28.1854C17.1051 27.9141 18.2503 27.3163 19.6494 26.8561C21.9825 26.0901 23.2151 25.211 22.6648 24.7057C22.5442 24.5951 20.7487 25.1072 18.6756 25.8444ZM37.3354 25.059C37.4674 25.4536 38.6943 26.2083 40.0619 26.7354C43.3462 28.0016 43.2903 27.8953 41.6029 29.683C40.7931 30.5415 40.4401 31.2437 40.8195 31.2437C41.9302 31.2437 45.4991 27.9866 44.9412 27.482C43.872 26.5141 37.1005 24.3568 37.3354 25.059ZM21.4963 27.8359C21.4831 30.2564 24.2498 45 24.7171 45C25.0872 45 28.4952 42.2906 31.5019 39.6063C31.6457 39.4775 31.3021 39.3724 30.7379 39.3724C30.1744 39.3724 28.7358 40.2266 27.5416 41.2702L25.3699 43.1679L24.7096 39.8633C24.3465 38.0456 23.7271 34.589 23.3332 32.1816C22.6403 27.9516 21.5095 25.2766 21.4963 27.8359ZM36.3385 33.5885C35.7203 37.2859 35.0626 40.96 34.8772 41.7541L34.5405 43.1973L33.0498 41.8035C32.23 41.0369 31.3461 40.6217 31.086 40.8806C30.8253 41.1395 31.5628 42.1968 32.725 43.2304C33.8866 44.2634 35.0525 44.8731 35.3164 44.5854C35.7951 44.0621 38.4643 29.9419 38.4643 27.931C38.4643 27.3457 38.2388 26.8667 37.9637 26.8667C37.6879 26.8667 36.9566 29.8912 36.3385 33.5885ZM38.884 31.0342C38.6547 31.2631 39.1849 32.67 40.0625 34.1607L41.6582 36.8713H39.7472C37.6175 36.8713 37.179 37.8298 39.0392 38.4176C40.1417 38.7659 43.49 38.2776 43.49 37.7692C43.49 37.5672 39.7629 31.123 39.445 30.7747C39.3665 30.6891 39.1139 30.8054 38.884 31.0342ZM17.8319 34.9954C17.0894 36.1991 16.4806 37.3896 16.4794 37.641C16.4756 38.3607 19.3924 38.9028 20.8291 38.4489C22.7703 37.8355 22.4009 36.8713 20.2242 36.8713C18.4947 36.8713 18.3816 36.7519 19.0086 35.5863C20.2531 33.2715 19.2165 32.7513 17.8319 34.9954ZM34.381 35.6207C34.1674 35.9646 34.2924 36.246 34.658 36.246C35.0236 36.246 35.3233 35.9646 35.3233 35.6207C35.3233 35.2768 35.1989 34.9954 35.0462 34.9954C34.8936 34.9954 34.5945 35.2768 34.381 35.6207ZM25.2719 36.2835C25.2719 37.012 27.7477 39.3155 28.57 39.3518C29.6028 39.3974 28.9419 38.2838 27.1565 36.9701C26.1199 36.2072 25.2719 35.8983 25.2719 36.2835ZM29.0411 37.4966C29.0411 37.8405 29.8892 38.1644 30.9258 38.2157C31.9623 38.2669 33.1402 38.3376 33.5435 38.372C33.9462 38.4064 34.3941 38.0831 34.538 37.6529C34.7221 37.1033 33.945 36.8713 31.9202 36.8713C30.3371 36.8713 29.0411 37.1527 29.0411 37.4966Z" fill="white" stroke="white"/>
</svg>
