<svg width="613" height="324" viewBox="0 0 613 324" fill="none" xmlns="http://www.w3.org/2000/svg">
<mask id="path-1-outside-1_2012_223" maskUnits="userSpaceOnUse" x="0" y="0" width="613" height="324" fill="black">
<rect fill="white" width="613" height="324"/>
<path fill-rule="evenodd" clip-rule="evenodd" d="M561 322C588.614 322 611 299.614 611 272V52C611 24.3858 588.614 2 561 2H97C83.7452 2 73 12.7452 73 26C73 53.6142 50.6143 76 23 76C11.402 76 2 85.402 2 97V272C2 299.614 24.3858 322 52 322H561Z"/>
</mask>
<path fill-rule="evenodd" clip-rule="evenodd" d="M561 322C588.614 322 611 299.614 611 272V52C611 24.3858 588.614 2 561 2H97C83.7452 2 73 12.7452 73 26C73 53.6142 50.6143 76 23 76C11.402 76 2 85.402 2 97V272C2 299.614 24.3858 322 52 322H561Z" fill="white"/>
<path d="M609 272C609 298.51 587.51 320 561 320V324C589.719 324 613 300.719 613 272H609ZM609 52V272H613V52H609ZM561 4C587.51 4 609 25.4904 609 52H613C613 23.2812 589.719 0 561 0V4ZM97 4H561V0H97V4ZM71 26C71 52.5096 49.5097 74 23 74V78C51.7188 78 75 54.7188 75 26H71ZM4 272V97H0V272H4ZM52 320C25.4904 320 4 298.51 4 272H0C0 300.719 23.2812 324 52 324V320ZM561 320H52V324H561V320ZM23 74C10.2974 74 0 84.2975 0 97H4C4 86.5066 12.5066 78 23 78V74ZM97 0C82.6406 0 71 11.6406 71 26H75C75 13.8497 84.8497 4 97 4V0Z" fill="#D8F7DC" mask="url(#path-1-outside-1_2012_223)"/>
<circle cx="32" cy="32" r="30" transform="rotate(180 32 32)" fill="#B9E1BE"/>
<path d="M46 28.6667L34 22L22 28.6667L34 35.3333L46 28.6667ZM26.3636 33.3111V37.7556L34 42L41.6364 37.7556V33.3111L34 37.5556L26.3636 33.3111Z" fill="white"/>
</svg>
