<svg width="613" height="324" viewBox="0 0 613 324" fill="none" xmlns="http://www.w3.org/2000/svg">
<mask id="path-1-outside-1_2012_109" maskUnits="userSpaceOnUse" x="0" y="0" width="613" height="324" fill="black">
<rect fill="white" width="613" height="324"/>
<path fill-rule="evenodd" clip-rule="evenodd" d="M561 322C588.614 322 611 299.614 611 272V52C611 24.3858 588.614 2 561 2H97C83.7452 2 73 12.7452 73 26C73 53.6142 50.6143 76 23 76C11.402 76 2 85.402 2 97V272C2 299.614 24.3858 322 52 322H561Z"/>
</mask>
<path fill-rule="evenodd" clip-rule="evenodd" d="M561 322C588.614 322 611 299.614 611 272V52C611 24.3858 588.614 2 561 2H97C83.7452 2 73 12.7452 73 26C73 53.6142 50.6143 76 23 76C11.402 76 2 85.402 2 97V272C2 299.614 24.3858 322 52 322H561Z" fill="white"/>
<path d="M609 272C609 298.51 587.51 320 561 320V324C589.719 324 613 300.719 613 272H609ZM609 52V272H613V52H609ZM561 4C587.51 4 609 25.4904 609 52H613C613 23.2812 589.719 0 561 0V4ZM97 4H561V0H97V4ZM71 26C71 52.5096 49.5097 74 23 74V78C51.7188 78 75 54.7188 75 26H71ZM4 272V97H0V272H4ZM52 320C25.4904 320 4 298.51 4 272H0C0 300.719 23.2812 324 52 324V320ZM561 320H52V324H561V320ZM23 74C10.2974 74 0 84.2975 0 97H4C4 86.5066 12.5066 78 23 78V74ZM97 0C82.6406 0 71 11.6406 71 26H75C75 13.8497 84.8497 4 97 4V0Z" fill="#DEF1F9" mask="url(#path-1-outside-1_2012_109)"/>
<circle cx="32" cy="32" r="30" transform="rotate(180 32 32)" fill="#78B8FC"/>
<path d="M30.7777 21.8512C31.1624 20.7163 32.8376 20.7163 33.2223 21.8512L35.1741 27.6088C35.3461 28.1164 35.8396 28.46 36.3964 28.46H42.7123C43.9573 28.46 44.475 29.9871 43.4677 30.6886L38.358 34.2469C37.9076 34.5606 37.7191 35.1167 37.8912 35.6242L39.8429 41.3818C40.2276 42.5168 38.8724 43.4606 37.8651 42.7591L32.7554 39.2008C32.305 38.8871 31.695 38.8871 31.2446 39.2008L26.1349 42.7591C25.1276 43.4606 23.7724 42.5168 24.1571 41.3818L26.1088 35.6242C26.2809 35.1167 26.0924 34.5606 25.642 34.2469L20.5323 30.6886C19.525 29.9871 20.0427 28.46 21.2877 28.46H27.6036C28.1604 28.46 28.6539 28.1164 28.8259 27.6088L30.7777 21.8512Z" fill="white"/>
</svg>
