<svg width="16" height="18" viewBox="0 0 16 18" fill="none" xmlns="http://www.w3.org/2000/svg">
<path d="M2.94481 7.46854C4.08782 10.2172 6.09202 12.5557 8.63776 14.1111L10.8579 12.2226C11.1405 11.9822 11.5115 11.9367 11.8313 12.0655C12.8534 12.4946 13.9627 12.7709 15.1333 12.8644C15.3817 12.8842 15.6122 13.0016 15.7743 13.1906C15.9363 13.3796 16.0165 13.6249 15.9972 13.8724L15.7429 17.1386C15.7237 17.3861 15.6065 17.6156 15.4173 17.7766C15.228 17.9375 14.9821 18.0168 14.7338 17.997C10.5113 17.6599 6.59188 15.6651 3.83773 12.4516C1.08359 9.23804 -0.279666 5.06893 0.0478607 0.861422C0.067127 0.613921 0.184273 0.384436 0.373528 0.223449C0.562783 0.0624622 0.808644 -0.016838 1.05702 0.00299309L4.33485 0.2647C4.58323 0.284531 4.81378 0.401869 4.97579 0.590901C5.1378 0.779933 5.21799 1.02517 5.19872 1.27268C5.10792 2.43918 5.20805 3.57398 5.4732 4.64683C5.55079 4.98167 5.44754 5.33964 5.16498 5.58L2.94481 7.46854Z" fill="#2E3343"/>
</svg>
