<svg width="60" height="60" viewBox="0 0 60 60" fill="none" xmlns="http://www.w3.org/2000/svg">
<rect width="60" height="60" rx="15" fill="#D6C5EB"/>
<path d="M28.2794 19.1167C28.4378 18.7816 28.6831 18.4993 28.9873 18.302C29.2916 18.1046 29.6428 18 30.001 18C30.3593 18 30.7105 18.1046 31.0147 18.302C31.319 18.4993 31.5642 18.7816 31.7227 19.1167L34.391 24.7534L40.3562 25.6569C40.7108 25.7107 41.044 25.8668 41.3179 26.1078C41.5918 26.3488 41.7956 26.6649 41.9063 27.0204C42.0169 27.3759 42.0299 27.7567 41.9438 28.1195C41.8577 28.4823 41.676 28.8128 41.4192 29.0735L37.1025 33.4611L38.1223 39.6584C38.1829 40.0266 38.1437 40.405 38.0089 40.7511C37.8742 41.0972 37.6493 41.397 37.3598 41.6168C37.0702 41.8365 36.7275 41.9674 36.3704 41.9947C36.0132 42.0219 35.6559 41.9444 35.3388 41.7709L29.9998 38.8425L24.6633 41.7709C24.3462 41.9444 23.9888 42.0219 23.6317 41.9947C23.2746 41.9674 22.9319 41.8365 22.6423 41.6168C22.3528 41.397 22.1279 41.0972 21.9932 40.7511C21.8584 40.405 21.8192 40.0266 21.8798 39.6584L22.8972 33.4611L18.5805 29.0735C18.3236 28.8126 18.1419 28.482 18.056 28.1189C17.97 27.7559 17.9833 27.375 18.0941 27.0195C18.205 26.6639 18.4092 26.3478 18.6834 26.107C18.9576 25.8662 19.291 25.7103 19.6459 25.6569L25.6111 24.7559L28.2794 19.1167ZM30.0022 21.1341L27.6507 26.0975C27.5134 26.3883 27.3104 26.6401 27.0592 26.831C26.808 27.022 26.5161 27.1465 26.2086 27.1938L20.9536 27.9897L24.7569 31.8542C24.9797 32.0808 25.1463 32.3605 25.2425 32.6693C25.3386 32.978 25.3614 33.3064 25.3088 33.6263L24.4113 39.0828L29.1096 36.5047C29.3849 36.3539 29.6913 36.2751 30.0022 36.2751C30.3132 36.2751 30.6196 36.3539 30.8949 36.5047L35.5932 39.0828L34.6957 33.6263C34.6431 33.3064 34.6659 32.978 34.762 32.6693C34.8582 32.3605 35.0248 32.0808 35.2476 31.8542L39.0485 27.9872L33.7959 27.1913C33.488 27.1443 33.1956 27.02 32.9439 26.8291C32.6923 26.6381 32.4889 26.3861 32.3514 26.095L30.0022 21.1341Z" fill="white"/>
</svg>
