<svg width="60" height="60" viewBox="0 0 60 60" fill="none" xmlns="http://www.w3.org/2000/svg">
<rect width="60" height="60" rx="15" fill="#D6C5EB"/>
<path d="M26.0009 36.6667V42L30.0009 39.3333L34.0009 42V36.6667M32.6102 19.7L32.1796 19.108C31.9294 18.7647 31.6016 18.4854 31.223 18.2929C30.8444 18.1004 30.4257 18 30.0009 18C29.5762 18 29.1574 18.1004 28.7788 18.2929C28.4002 18.4854 28.0724 18.7647 27.8222 19.108L27.3916 19.7L26.6676 19.5866C26.2481 19.5208 25.819 19.555 25.4152 19.6865C25.0114 19.818 24.6445 20.043 24.3442 20.3433C24.044 20.6435 23.8189 21.0105 23.6874 21.4143C23.5559 21.818 23.5217 22.2472 23.5876 22.6666L23.7009 23.3906L23.1089 23.8213C22.7654 24.0713 22.4859 24.399 22.2932 24.7777C22.1005 25.1563 22 25.5751 22 26C22 26.4248 22.1005 26.8437 22.2932 27.2223C22.4859 27.6009 22.7654 27.9286 23.1089 28.1787L23.7009 28.6093L23.5876 29.332C23.5215 29.7516 23.5555 30.1809 23.6869 30.5848C23.8183 30.9887 24.0433 31.3559 24.3436 31.6563C24.6439 31.9567 25.0109 32.1819 25.4148 32.3135C25.8187 32.445 26.248 32.4792 26.6676 32.4133L27.3916 32.3L27.8222 32.892C28.0724 33.2352 28.4002 33.5145 28.7788 33.7071C29.1574 33.8996 29.5762 34 30.0009 34C30.4257 34 30.8444 33.8996 31.223 33.7071C31.6016 33.5145 31.9294 33.2352 32.1796 32.892L32.6102 32.3L33.3329 32.4133C33.7525 32.4794 34.1818 32.4454 34.5857 32.314C34.9897 32.1826 35.3568 31.9576 35.6572 31.6573C35.9577 31.357 36.1828 30.99 36.3144 30.5861C36.4459 30.1822 36.4802 29.7529 36.4143 29.3333L36.3009 28.6093L36.8929 28.1787C37.2362 27.9285 37.5154 27.6007 37.708 27.2221C37.9005 26.8435 38.0009 26.4247 38.0009 26C38.0009 25.5752 37.9005 25.1565 37.708 24.7779C37.5154 24.3993 37.2362 24.0715 36.8929 23.8213L36.3009 23.3906L36.4143 22.668C36.4803 22.2484 36.4463 21.8191 36.3149 21.4152C36.1835 21.0112 35.9585 20.6441 35.6582 20.3437C35.3579 20.0432 34.9909 19.8181 34.587 19.6865C34.1831 19.5549 33.7539 19.5207 33.3343 19.5866L32.6102 19.7Z" stroke="white" stroke-width="2" stroke-linecap="round" stroke-linejoin="round"/>
</svg>
