<svg width="60" height="61" viewBox="0 0 60 61" fill="none" xmlns="http://www.w3.org/2000/svg">
<rect y="0.895508" width="60" height="60" rx="15" fill="#B9E1BE"/>
<path d="M31.1525 33.2113C31.0079 33.2408 30.878 33.3194 30.7847 33.4337C30.6914 33.548 30.6404 33.691 30.6404 33.8385V35.2152C30.6404 35.4698 30.5393 35.714 30.3593 35.8941C30.1792 36.0741 29.935 36.1753 29.6804 36.1753C29.4258 36.1753 29.1816 36.0741 29.0016 35.8941C28.8215 35.714 28.7204 35.4698 28.7204 35.2152V32.449C28.7204 32.2061 28.8126 31.9722 28.9783 31.7945C29.144 31.6168 29.3709 31.5086 29.6132 31.4916C30.7512 31.4122 32.4248 31.0243 33.783 30.1584C35.1084 29.3123 36.0806 28.0559 36.0806 26.1557C36.0806 24.3252 35.4016 23.056 34.4153 22.2144C33.4053 21.3523 31.9999 20.88 30.4907 20.8211C27.3667 20.6988 24.4553 22.2995 23.8972 24.7918C23.8416 25.0403 23.6895 25.2565 23.4745 25.393C23.2595 25.5294 22.9991 25.5748 22.7505 25.5192C22.502 25.4636 22.2858 25.3116 22.1494 25.0965C22.013 24.8815 21.9676 24.6211 22.0232 24.3726C22.4494 22.4691 23.6789 21.0758 25.2706 20.1638C26.8707 19.2466 28.8106 18.8338 30.5662 18.9029C32.4018 18.9746 34.2527 19.5513 35.6621 20.7539C37.0957 21.9776 38.0007 23.7902 38.0007 26.1557C38.0007 28.8681 36.5479 30.6717 34.816 31.777C33.6434 32.5252 32.3199 32.9739 31.1531 33.2107M28.0803 40.9754C28.0803 40.4662 28.2826 39.9778 28.6427 39.6177C29.0028 39.2577 29.4912 39.0554 30.0004 39.0554C30.5097 39.0554 30.998 39.2577 31.3581 39.6177C31.7182 39.9778 31.9205 40.4662 31.9205 40.9754C31.9205 41.4847 31.7182 41.973 31.3581 42.3331C30.998 42.6932 30.5097 42.8955 30.0004 42.8955C29.4912 42.8955 29.0028 42.6932 28.6427 42.3331C28.2826 41.973 28.0803 41.4847 28.0803 40.9754Z" fill="white"/>
<path d="M31.1525 33.2113C31.0079 33.2408 30.878 33.3194 30.7847 33.4337C30.6914 33.548 30.6404 33.691 30.6404 33.8385V35.2152C30.6404 35.4698 30.5393 35.714 30.3593 35.8941C30.1792 36.0741 29.935 36.1753 29.6804 36.1753C29.4258 36.1753 29.1816 36.0741 29.0016 35.8941C28.8215 35.714 28.7204 35.4698 28.7204 35.2152V32.449C28.7204 32.2061 28.8126 31.9722 28.9783 31.7945C29.144 31.6168 29.3709 31.5086 29.6132 31.4916C30.7512 31.4122 32.4248 31.0243 33.783 30.1584C35.1084 29.3123 36.0806 28.0559 36.0806 26.1557C36.0806 24.3252 35.4016 23.056 34.4153 22.2144C33.4053 21.3523 31.9999 20.88 30.4907 20.8211C27.3667 20.6988 24.4553 22.2995 23.8972 24.7918C23.8416 25.0403 23.6895 25.2565 23.4745 25.393C23.2595 25.5294 22.9991 25.5748 22.7505 25.5192C22.502 25.4636 22.2858 25.3116 22.1494 25.0965C22.013 24.8815 21.9676 24.6211 22.0232 24.3726C22.4494 22.4691 23.6789 21.0758 25.2706 20.1638C26.8707 19.2466 28.8106 18.8338 30.5662 18.9029C32.4018 18.9746 34.2527 19.5513 35.6621 20.7539C37.0957 21.9776 38.0007 23.7902 38.0007 26.1557C38.0007 28.8681 36.5479 30.6717 34.816 31.777C33.6434 32.5252 32.3199 32.9739 31.1531 33.2107M28.0803 40.9754C28.0803 40.4662 28.2826 39.9778 28.6427 39.6177C29.0028 39.2577 29.4912 39.0554 30.0004 39.0554C30.5097 39.0554 30.998 39.2577 31.3581 39.6177C31.7182 39.9778 31.9205 40.4662 31.9205 40.9754C31.9205 41.4847 31.7182 41.973 31.3581 42.3331C30.998 42.6932 30.5097 42.8955 30.0004 42.8955C29.4912 42.8955 29.0028 42.6932 28.6427 42.3331C28.2826 41.973 28.0803 41.4847 28.0803 40.9754Z" stroke="white" stroke-width="2" stroke-linecap="round" stroke-linejoin="round"/>
</svg>
