<svg width="291" height="150" viewBox="0 0 291 150" fill="none" xmlns="http://www.w3.org/2000/svg">
<path opacity="0.7" d="M227.117 77.2727C214.539 77.2727 202.244 73.5405 191.786 66.5481C181.329 59.5556 173.178 49.617 168.365 37.989C163.551 26.3609 162.292 13.5658 164.746 1.22155C167.2 -11.1227 173.256 -22.4616 182.15 -31.3613C191.043 -40.261 202.375 -46.3218 214.71 -48.7772C227.046 -51.2326 239.832 -49.9724 251.452 -45.1559C263.073 -40.3395 273.004 -32.183 279.992 -21.7181C286.98 -11.2531 290.709 1.0503 290.709 13.6364L291 22.7273C291 39.441 287.71 55.991 281.319 71.4325C274.927 86.8739 265.559 100.904 253.748 112.723C241.938 124.541 227.917 133.916 212.486 140.312C197.056 146.708 180.517 150 163.815 150V113.636C175.75 113.668 187.573 111.333 198.601 106.764C209.629 102.195 219.642 95.4836 228.061 87.0182C231.334 83.7497 234.353 80.2365 237.092 76.5091C233.792 77.028 230.457 77.2894 227.117 77.2909V77.2727ZM63.5927 77.2727C51.0152 77.2727 38.7202 73.5405 28.2625 66.5481C17.8047 59.5556 9.65391 49.617 4.84073 37.989C0.027554 26.3609 -1.23179 13.5658 1.22194 1.22155C3.67568 -11.1227 9.73229 -22.4616 18.6259 -31.3613C27.5195 -40.261 38.8506 -46.3218 51.1864 -48.7772C63.5221 -51.2326 76.3085 -49.9724 87.9285 -45.1559C99.5486 -40.3395 109.48 -32.183 116.468 -21.7181C123.456 -11.2531 127.185 1.0503 127.185 13.6364L127.476 22.7273C127.476 56.4821 114.076 88.8544 90.2243 112.723C66.3724 136.591 34.0224 150 0.290738 150V113.636C12.2261 113.668 24.0495 111.333 35.0771 106.764C46.1048 102.195 56.1179 95.4836 64.5375 87.0182C67.8099 83.7497 70.8286 80.2365 73.5676 76.5091C70.2679 77.028 66.9329 77.2894 63.5927 77.2909V77.2727Z" fill="white"/>
</svg>
