<svg width="60" height="60" viewBox="0 0 60 60" fill="none" xmlns="http://www.w3.org/2000/svg">
<rect width="60" height="60" rx="15" fill="#D6C5EB"/>
<path d="M23.6842 42C22.1767 42 20.7309 41.4011 19.6649 40.3351C18.5989 39.2691 18 37.8233 18 36.3158C18 34.8082 18.5989 33.3624 19.6649 32.2964C20.7309 31.2304 22.1767 30.6316 23.6842 30.6316C25.1918 30.6316 26.6376 31.2304 27.7036 32.2964C28.7695 33.3624 29.3684 34.8082 29.3684 36.3158C29.3684 37.8233 28.7695 39.2691 27.7036 40.3351C26.6376 41.4011 25.1918 42 23.6842 42ZM36.3158 29.3684C35.5693 29.3684 34.8302 29.2214 34.1405 28.9357C33.4509 28.6501 32.8243 28.2314 32.2964 27.7036C31.7686 27.1757 31.3499 26.5491 31.0643 25.8595C30.7786 25.1698 30.6316 24.4307 30.6316 23.6842C30.6316 22.9377 30.7786 22.1986 31.0643 21.509C31.3499 20.8193 31.7686 20.1927 32.2964 19.6649C32.8243 19.137 33.4509 18.7183 34.1405 18.4327C34.8302 18.147 35.5693 18 36.3158 18C37.8233 18 39.2691 18.5989 40.3351 19.6649C41.4011 20.7309 42 22.1767 42 23.6842C42 25.1918 41.4011 26.6376 40.3351 27.7036C39.2691 28.7695 37.8233 29.3684 36.3158 29.3684ZM23.6842 39.4737C24.5217 39.4737 25.325 39.141 25.9172 38.5488C26.5094 37.9565 26.8421 37.1533 26.8421 36.3158C26.8421 35.4783 26.5094 34.675 25.9172 34.0828C25.325 33.4906 24.5217 33.1579 23.6842 33.1579C22.8467 33.1579 22.0435 33.4906 21.4512 34.0828C20.859 34.675 20.5263 35.4783 20.5263 36.3158C20.5263 37.1533 20.859 37.9565 21.4512 38.5488C22.0435 39.141 22.8467 39.4737 23.6842 39.4737ZM36.3158 26.8421C37.1533 26.8421 37.9565 26.5094 38.5488 25.9172C39.141 25.325 39.4737 24.5217 39.4737 23.6842C39.4737 22.8467 39.141 22.0435 38.5488 21.4512C37.9565 20.859 37.1533 20.5263 36.3158 20.5263C35.4783 20.5263 34.675 20.859 34.0828 21.4512C33.4906 22.0435 33.1579 22.8467 33.1579 23.6842C33.1579 24.5217 33.4906 25.325 34.0828 25.9172C34.675 26.5094 35.4783 26.8421 36.3158 26.8421ZM18.6316 24.9474C18.6316 23.2723 19.297 21.6659 20.4814 20.4814C21.6659 19.297 23.2723 18.6316 24.9474 18.6316H28.7368V21.1579H24.9474C23.9423 21.1579 22.9785 21.5571 22.2678 22.2678C21.5571 22.9785 21.1579 23.9423 21.1579 24.9474V28.7368H18.6316V24.9474ZM41.3684 31.2632H38.8421V35.0526C38.8421 36.0577 38.4429 37.0215 37.7322 37.7322C37.0215 38.4429 36.0577 38.8421 35.0526 38.8421H31.2632V41.3684H35.0526C36.7277 41.3684 38.3341 40.703 39.5186 39.5186C40.703 38.3341 41.3684 36.7277 41.3684 35.0526V31.2632Z" fill="white"/>
</svg>
