<svg width="60" height="60" viewBox="0 0 60 60" fill="none" xmlns="http://www.w3.org/2000/svg">
<rect width="60" height="60" rx="15" fill="#B9E1BE"/>
<path d="M42.0004 25.1985C42.0001 24.9843 41.9426 24.7741 41.8337 24.5897C41.7248 24.4052 41.5686 24.2533 41.3811 24.1496L30.5544 18.1494C30.3765 18.0514 30.1766 18 29.9735 18C29.7704 18 29.5706 18.0514 29.3927 18.1494L18.6187 24.1016C18.4315 24.2053 18.2755 24.3571 18.1667 24.5413C18.0579 24.7255 18.0004 24.9355 18 25.1494C17.9996 25.3634 18.0565 25.5735 18.1646 25.7581C18.2728 25.9427 18.4283 26.095 18.6151 26.1993L29.4419 32.2475C29.6202 32.3477 29.8211 32.4004 30.0256 32.4006C30.23 32.4008 30.4311 32.3485 30.6096 32.2487L41.3835 26.2485C41.5707 26.1444 41.7266 25.9922 41.835 25.8075C41.9435 25.6229 42.0006 25.4126 42.0004 25.1985ZM30.0275 29.8246L21.6716 25.1577L29.9723 20.5711L38.3294 25.2021L30.0275 29.8246Z" fill="white"/>
<path d="M40.2183 28.951L29.9999 34.6272L19.7816 28.951L18.6163 31.0487L29.4167 37.0489C29.5949 37.1479 29.7955 37.1998 29.9993 37.1998C30.2032 37.1998 30.4037 37.1479 30.582 37.0489L41.3823 31.0487L40.2183 28.951Z" fill="white"/>
<path d="M40.2183 33.7512L29.9999 39.4274L19.7816 33.7512L18.6163 35.8489L29.4167 41.8491C29.5949 41.9481 29.7955 42 29.9993 42C30.2032 42 30.4037 41.9481 30.582 41.8491L41.3823 35.8489L40.2183 33.7512Z" fill="white"/>
</svg>
