<svg width="219" height="178" viewBox="0 0 219 178" fill="none" xmlns="http://www.w3.org/2000/svg">
<path d="M5.94124 44.3079L207.585 0.905395L210.205 0.342662C211.54 0.0534572 212.929 0.145947 214.213 0.609499C215.497 1.07305 216.624 1.88881 217.464 2.96302C218.305 4.03723 218.824 5.32625 218.963 6.68182C219.101 8.0374 218.854 9.4045 218.248 10.6259L138.187 172.854C137.669 173.896 136.908 174.799 135.967 175.487C135.026 176.174 133.934 176.626 132.781 176.804C131.625 176.983 130.443 176.879 129.337 176.501C128.23 176.122 127.233 175.48 126.43 174.631L70.8219 116.125C70.4263 115.698 69.9465 115.358 69.4127 115.125C68.8789 114.893 68.3025 114.773 67.72 114.773C66.9282 114.762 66.1483 114.966 65.4637 115.363C64.7791 115.76 64.2156 116.336 63.8336 117.028L52.4435 138.05C51.7164 139.451 50.5402 140.57 49.1022 141.227C47.6643 141.885 46.0472 142.044 44.5085 141.678L44.4518 141.665C42.8943 141.336 41.493 140.494 40.4731 139.274C39.4533 138.055 38.8741 136.528 38.8287 134.94L36.547 86.4145C36.5198 85.809 36.3682 85.2156 36.1017 84.671C35.8156 84.132 35.4273 83.6536 34.9584 83.2624L2.87756 56.9857C1.82307 56.1221 1.03381 54.9794 0.60022 53.6888C0.166641 52.3981 0.106262 51.0117 0.426056 49.6884C0.74585 48.3651 1.43282 47.1585 2.40826 46.2068C3.38373 45.2552 4.60815 44.5971 5.94124 44.3079ZM4.70959 54.7519L36.7904 81.0288C37.2084 81.3648 37.5872 81.7466 37.9196 82.1672L207.949 5.2246C208.099 5.15498 208.256 5.10024 208.416 5.06111C209.072 4.89244 209.766 4.95777 210.379 5.2458C210.992 5.53383 211.484 6.02645 211.771 6.63845C212.059 7.25046 212.122 7.94335 211.952 8.59733C211.781 9.25132 211.387 9.82529 210.837 10.2199L71.0348 112.689C71.7442 113.057 72.3848 113.545 72.9282 114.13L128.536 172.635C129.018 173.142 129.616 173.525 130.279 173.751C130.942 173.978 131.649 174.042 132.342 173.937C133.034 173.833 133.691 173.563 134.257 173.15C134.823 172.738 135.28 172.196 135.591 171.569L215.651 9.34123C216.009 8.60823 216.154 7.78966 216.068 6.97878C215.982 6.1679 215.67 5.39729 215.167 4.75479C214.664 4.11229 213.99 3.62372 213.222 3.34473C212.455 3.06574 211.624 3.00753 210.824 3.17678L208.142 3.75523L6.56097 47.1422C5.76059 47.3151 5.02519 47.7094 4.43895 48.2799C3.85269 48.8505 3.43932 49.5742 3.24612 50.3683C3.05293 51.1624 3.08772 51.9947 3.34654 52.7699C3.60538 53.5452 4.07774 54.2321 4.70959 54.7519Z" fill="#F1FBFF"/>
<path d="M5.94124 44.3079L207.585 0.905395L210.205 0.342662C211.54 0.0534572 212.929 0.145947 214.213 0.609499C215.497 1.07305 216.624 1.88881 217.464 2.96302C218.305 4.03723 218.824 5.32625 218.963 6.68182C219.101 8.0374 218.854 9.4045 218.248 10.6259L138.187 172.854C137.669 173.896 136.908 174.799 135.967 175.487C135.026 176.174 133.934 176.626 132.781 176.804C131.625 176.983 130.443 176.879 129.337 176.501C128.23 176.122 127.233 175.48 126.43 174.631L70.8219 116.125C70.4263 115.698 69.9465 115.358 69.4127 115.125C68.8789 114.893 68.3025 114.773 67.72 114.773C66.9282 114.762 66.1483 114.966 65.4637 115.363C64.7791 115.76 64.2156 116.336 63.8336 117.028L52.4435 138.05C51.7164 139.451 50.5402 140.57 49.1022 141.227C47.6643 141.885 46.0472 142.044 44.5085 141.678L44.4518 141.665C42.8943 141.336 41.493 140.494 40.4731 139.274C39.4533 138.055 38.8741 136.528 38.8287 134.94L36.547 86.4145C36.5198 85.809 36.3682 85.2156 36.1017 84.671C35.8156 84.132 35.4273 83.6536 34.9584 83.2624L2.87756 56.9857C1.82307 56.1221 1.03381 54.9794 0.60022 53.6888C0.166641 52.3981 0.106262 51.0117 0.426056 49.6884C0.74585 48.3651 1.43282 47.1585 2.40826 46.2068C3.38373 45.2552 4.60815 44.5971 5.94124 44.3079ZM4.70959 54.7519L36.7904 81.0288C37.2084 81.3648 37.5872 81.7466 37.9196 82.1672C38.2194 82.5413 38.4783 82.9463 38.6918 83.3753C38.9156 83.814 39.0919 84.2752 39.2179 84.7512L39.2148 84.7653C39.3477 85.2611 39.4243 85.7702 39.4432 86.2831L41.7242 134.809C41.7433 135.763 42.0873 136.682 42.6996 137.415C43.3118 138.148 44.1559 138.652 45.093 138.843L45.1213 138.849C46.0446 139.078 47.0184 138.989 47.8847 138.596C48.751 138.204 49.459 137.531 49.8939 136.686L61.2872 115.65C61.8742 114.568 62.7285 113.654 63.7692 112.994C64.8098 112.334 66.0022 111.95 67.2332 111.879L67.247 111.882C67.4127 111.875 67.5777 111.867 67.7395 111.873C68.8881 111.873 70.0193 112.153 71.0348 112.689C71.7442 113.057 72.3847 113.545 72.9282 114.13L128.536 172.635C129.018 173.142 129.616 173.525 130.279 173.751C130.941 173.978 131.649 174.042 132.342 173.937C133.034 173.833 133.691 173.563 134.257 173.15C134.823 172.738 135.28 172.196 135.591 171.569L215.651 9.34123C216.009 8.60823 216.154 7.78966 216.068 6.97878C215.982 6.1679 215.67 5.39729 215.167 4.75479C214.664 4.11229 213.99 3.62372 213.222 3.34473C212.455 3.06574 211.624 3.00753 210.824 3.17678L208.142 3.75523L6.56097 47.1422C5.76059 47.3151 5.02519 47.7094 4.43895 48.2799C3.85269 48.8505 3.43932 49.5742 3.24612 50.3683C3.05293 51.1624 3.08772 51.9947 3.34654 52.7699C3.60538 53.5452 4.07774 54.2321 4.70959 54.7519Z" fill="#78B8FC"/>
<path d="M37.2737 82.4525L38.4719 85.0886L39.2122 84.7628L39.2153 84.7487L209.11 7.88031L67.2445 111.88L67.2306 111.877L66.855 112.164L68.5655 114.498L71.0322 112.687L210.835 10.2173C211.384 9.8227 211.779 9.24877 211.949 8.59479C212.12 7.9408 212.056 7.24787 211.769 6.63586C211.482 6.02385 210.989 5.53124 210.377 5.24321C209.764 4.95518 209.07 4.88985 208.414 5.05851C208.253 5.09765 208.097 5.15243 207.947 5.22205L37.9171 82.1646L37.2737 82.4525Z" fill="#78B8FC"/>
</svg>
