<svg width="60" height="60" viewBox="0 0 60 60" fill="none" xmlns="http://www.w3.org/2000/svg">
<rect width="60" height="60" rx="15" fill="#D6C5EB"/>
<path d="M24.4 34H19.6C18.7176 34 18 33.2824 18 32.4V27.6C18 26.7176 18.7176 26 19.6 26H24.4C25.2824 26 26 26.7176 26 27.6V32.4C26 33.2824 25.2824 34 24.4 34ZM19.6 27.6V32.4H24.4V27.6H19.6ZM26.5544 40.66C24.081 39.857 21.9625 38.2211 20.56 36.0312L21.908 35.1688C23.1098 37.0458 24.9251 38.4481 27.0448 39.1368L26.5544 40.66Z" fill="white"/>
<path d="M32.4 39.6C32.8418 39.6 33.2 39.2418 33.2 38.8C33.2 38.3582 32.8418 38 32.4 38C31.9582 38 31.6 38.3582 31.6 38.8C31.6 39.2418 31.9582 39.6 32.4 39.6Z" fill="white"/>
<path d="M40.4 42H30C29.1176 42 28.4 41.2824 28.4 40.4V37.2C28.4 36.3176 29.1176 35.6 30 35.6H40.4C41.2824 35.6 42 36.3176 42 37.2V40.4C42 41.2824 41.2824 42 40.4 42ZM30 37.2V40.4H40.4V37.2H30ZM38.712 34H40.4592C40.947 32.7227 41.1981 31.3673 41.2 30C41.2 29.4624 41.1488 28.9296 41.072 28.4H39.4512C39.5392 28.928 39.6 29.4608 39.6 30C39.6 31.404 39.2904 32.744 38.712 34ZM39.6 22.8C39.6 22.504 39.5464 22.2232 39.4712 21.9512L40.9568 21.0928L40.1568 19.7072L38.68 20.56C38.2724 20.1491 37.7609 19.8565 37.2 19.7136V18H35.6V19.7136C35.0312 19.8616 34.52 20.1536 34.12 20.56L32.6432 19.7072L31.8432 21.0928L33.328 21.952C33.2536 22.2232 33.2 22.5032 33.2 22.8C33.2 23.0968 33.2536 23.3768 33.3288 23.6496L31.8432 24.5072L32.6432 25.8928L34.12 25.04C34.52 25.4472 35.032 25.7376 35.6 25.8856V27.6H37.2V25.8856C37.7607 25.7427 38.2721 25.4504 38.68 25.04L40.1568 25.8928L40.9568 24.5072L39.4712 23.6496C39.5464 23.3776 39.6 23.096 39.6 22.8ZM36.4 24.4C35.5176 24.4 34.8 23.6824 34.8 22.8C34.8 21.9176 35.5176 21.2 36.4 21.2C37.2824 21.2 38 21.9184 38 22.8C38 23.6816 37.2824 24.4 36.4 24.4ZM21.9088 24.832L20.5608 23.968C21.5713 22.381 22.9664 21.0751 24.6166 20.1716C26.2668 19.2681 28.1186 18.7963 30 18.8V20.4C28.3871 20.3969 26.7996 20.8016 25.385 21.5764C23.9704 22.3513 22.7746 23.4712 21.9088 24.832Z" fill="white"/>
</svg>
